<svg width="1600" height="520" viewBox="0 0 1600 520" fill="none" xmlns="http://www.w3.org/2000/svg">
  <rect width="1600" height="520" rx="28" fill="#08111D"/>
  <rect x="24" y="24" width="1552" height="472" rx="24" fill="url(#bg)"/>
  <circle cx="1288" cy="118" r="182" fill="url(#glowA)" opacity="0.38"/>
  <circle cx="1200" cy="368" r="228" fill="url(#glowB)" opacity="0.26"/>
  <circle cx="1384" cy="260" r="88" stroke="#7DD3FC" stroke-opacity="0.28" stroke-width="2"/>
  <circle cx="1384" cy="260" r="44" fill="#38BDF8" fill-opacity="0.24"/>
  <path d="M1160 160L1280 220L1160 280L1040 220L1160 160Z" fill="#0EA5E9" fill-opacity="0.12" stroke="#38BDF8" stroke-opacity="0.35" stroke-width="2"/>
  <path d="M1040 220V328L1160 388V280L1040 220Z" fill="#22C55E" fill-opacity="0.1" stroke="#4ADE80" stroke-opacity="0.28" stroke-width="2"/>
  <path d="M1280 220V328L1160 388V280L1280 220Z" fill="#6366F1" fill-opacity="0.1" stroke="#818CF8" stroke-opacity="0.28" stroke-width="2"/>
  <path d="M1110 122C1145 102 1186 91 1228 91C1345 91 1440 186 1440 303C1440 348 1426 391 1400 427" stroke="#67E8F9" stroke-width="4" stroke-linecap="round" stroke-dasharray="10 12" opacity="0.7"/>
  <path d="M1070 332C1116 372 1176 396 1242 396C1303 396 1359 376 1403 342" stroke="#A78BFA" stroke-width="4" stroke-linecap="round" stroke-dasharray="10 12" opacity="0.6"/>
  <circle cx="1110" cy="122" r="8" fill="#67E8F9"/>
  <circle cx="1400" cy="427" r="8" fill="#67E8F9"/>
  <circle cx="1070" cy="332" r="8" fill="#A78BFA"/>
  <circle cx="1403" cy="342" r="8" fill="#A78BFA"/>
  <text x="96" y="176" fill="#F8FAFC" font-family="Segoe UI, Arial, sans-serif" font-size="68" font-weight="700" letter-spacing="-1.5">
    Recommendation Engine
  </text>
  <text x="96" y="238" fill="#B6C2CF" font-family="Segoe UI, Arial, sans-serif" font-size="28" font-weight="500">
    Modular recommendation system from first principles
  </text>
  <text x="96" y="294" fill="#8CA3B8" font-family="Segoe UI, Arial, sans-serif" font-size="24" font-weight="400">
    Events -> Statistics -> Graph -> Collaborative Filtering -> Hybrid Ranking
  </text>
  <g opacity="0.95">
    <rect x="96" y="352" width="194" height="48" rx="24" fill="#0F172A" stroke="#1D4ED8" stroke-opacity="0.35"/>
    <text x="132" y="383" fill="#93C5FD" font-family="Segoe UI, Arial, sans-serif" font-size="21" font-weight="600">
      Phase 1 foundation
    </text>
    <rect x="306" y="352" width="154" height="48" rx="24" fill="#0F172A" stroke="#0EA5E9" stroke-opacity="0.35"/>
    <text x="356" y="383" fill="#7DD3FC" font-family="Segoe UI, Arial, sans-serif" font-size="21" font-weight="600">
      Bun + TS
    </text>
    <rect x="476" y="352" width="212" height="48" rx="24" fill="#0F172A" stroke="#22C55E" stroke-opacity="0.35"/>
    <text x="523" y="383" fill="#86EFAC" font-family="Segoe UI, Arial, sans-serif" font-size="21" font-weight="600">
      Event-driven core
    </text>
  </g>
  <defs>
    <linearGradient id="bg" x1="110" y1="42" x2="1485" y2="490" gradientUnits="userSpaceOnUse">
      <stop stop-color="#0B1524"/>
      <stop offset="0.55" stop-color="#0E1B2E"/>
      <stop offset="1" stop-color="#0A1320"/>
    </linearGradient>
    <radialGradient id="glowA" cx="0" cy="0" r="1" gradientUnits="userSpaceOnUse" gradientTransform="translate(1288 118) rotate(90) scale(182)">
      <stop stop-color="#0EA5E9"/>
      <stop offset="1" stop-color="#0EA5E9" stop-opacity="0"/>
    </radialGradient>
    <radialGradient id="glowB" cx="0" cy="0" r="1" gradientUnits="userSpaceOnUse" gradientTransform="translate(1200 368) rotate(90) scale(228)">
      <stop stop-color="#8B5CF6"/>
      <stop offset="1" stop-color="#8B5CF6" stop-opacity="0"/>
    </radialGradient>
  </defs>
</svg>
